<svg width="30" height="30" viewBox="0 0 30 30" fill="none" xmlns="http://www.w3.org/2000/svg">
<path d="M28.5937 0.641602H22.7845C22.4243 0.641602 22.1323 0.933604 22.1323 1.2938V10.8217C22.1323 11.1819 22.4243 11.4739 22.7845 11.4739H28.5937C28.9539 11.4739 29.2459 11.1819 29.2459 10.8217V1.2938C29.2459 0.933604 28.9539 0.641602 28.5937 0.641602Z" fill="#4D4D4D"/>
<path d="M19.3607 2.01115H23.1443C23.3787 2.01115 23.569 2.20143 23.569 2.43583V8.37184C23.569 8.60624 23.3787 8.79652 23.1443 8.79652H19.3607C19.1263 8.79652 18.936 8.60624 18.936 8.37184V2.43446C18.936 2.20005 19.1263 2.00977 19.3607 2.00977V2.01115Z" fill="#4D4D4D"/>
<path fill-rule="evenodd" clip-rule="evenodd" d="M16.0363 3.39917H21.8082C22.0288 3.39917 22.2094 3.5798 22.2094 3.80042C22.2094 4.02104 22.0288 4.20167 21.8082 4.20167H16.0363C15.8156 4.20167 15.635 4.02104 15.635 3.80042C15.635 3.5798 15.8156 3.39917 16.0363 3.39917Z" fill="#4D4D4D"/>
<path fill-rule="evenodd" clip-rule="evenodd" d="M16.0363 6.61011H21.8082C22.0288 6.61011 22.2094 6.79074 22.2094 7.01136C22.2094 7.23197 22.0288 7.4126 21.8082 7.4126H16.0363C15.8156 7.4126 15.635 7.23197 15.635 7.01136C15.635 6.79074 15.8156 6.61011 16.0363 6.61011Z" fill="#4D4D4D"/>
<path d="M23.8794 10.5605H25.2707C25.3576 10.5605 25.4265 10.6309 25.4265 10.7164V12.5502C25.4265 12.6371 25.3562 12.7061 25.2707 12.7061H23.8794C23.7926 12.7061 23.7236 12.6357 23.7236 12.5502V10.7164C23.7236 10.6295 23.794 10.5605 23.8794 10.5605Z" fill="#4D4D4D"/>
<path d="M25.3507 12.9285H23.7995C23.7576 12.9285 23.7236 12.9624 23.7236 13.0043V13.6827C23.7236 13.7246 23.7576 13.7585 23.7995 13.7585H25.3507C25.3926 13.7585 25.4265 13.7246 25.4265 13.6827V13.0043C25.4265 12.9624 25.3926 12.9285 25.3507 12.9285Z" fill="#4D4D4D"/>
<path d="M24.3454 12.4521H24.8059C24.8349 12.4521 24.8583 12.4756 24.8583 12.5045V14.3081C24.8583 14.3371 24.8349 14.3605 24.8059 14.3605H24.3454C24.3164 14.3605 24.293 14.3371 24.293 14.3081V12.5045C24.293 12.4756 24.3164 12.4521 24.3454 12.4521V12.4521Z" fill="#4D4D4D"/>
<path d="M23.7608 13.9795H25.3878C25.4085 13.9795 25.4264 13.996 25.4264 14.0181V14.3573C25.4264 14.378 25.4099 14.3959 25.3878 14.3959H23.7608C23.7401 14.3959 23.7222 14.3794 23.7222 14.3573V14.0181C23.7222 13.9974 23.7387 13.9795 23.7608 13.9795Z" fill="#4D4D4D"/>
<path d="M2.23656 4.91309H4.43723C4.57373 4.91309 4.68404 5.02339 4.68404 5.1599V8.76976C4.68404 8.90627 4.57373 9.01658 4.43723 9.01658H2.23656C2.10006 9.01658 1.98975 8.90627 1.98975 8.76976V5.1599C1.98975 5.02339 2.10006 4.91309 2.23656 4.91309V4.91309Z" fill="#4D4D4D"/>
<path d="M4.07871 8.6709H2.59643C2.55531 8.6709 2.52197 8.70423 2.52197 8.74535V9.40997C2.52197 9.45109 2.55531 9.48443 2.59643 9.48443H4.07871C4.11983 9.48443 4.15317 9.45109 4.15317 9.40997V8.74535C4.15317 8.70423 4.11983 8.6709 4.07871 8.6709Z" fill="#4D4D4D"/>
<path d="M3.92008 9.56836H2.75357C2.73757 9.56836 2.72461 9.58133 2.72461 9.59732V9.85378C2.72461 9.86978 2.73757 9.88274 2.75357 9.88274H3.92008C3.93607 9.88274 3.94904 9.86978 3.94904 9.85378V9.59732C3.94904 9.58133 3.93607 9.56836 3.92008 9.56836Z" fill="#4D4D4D"/>
<path d="M3.20172 9.38794H3.47198C3.48853 9.38794 3.50231 9.40173 3.50231 9.41827V10.0801C3.50231 10.0967 3.48853 10.1105 3.47198 10.1105H3.20172C3.18518 10.1105 3.17139 10.0967 3.17139 10.0801V9.41827C3.17139 9.40173 3.18518 9.38794 3.20172 9.38794Z" fill="#4D4D4D"/>
<path d="M3.0006 9.9672H3.67487C3.68314 9.9672 3.68866 9.9741 3.68866 9.98099V10.1092C3.68866 10.1175 3.68176 10.123 3.67487 10.123H3.0006C2.99233 10.123 2.98682 10.1161 2.98682 10.1092V9.98099C2.98682 9.97272 2.99371 9.96582 3.00198 9.96582L3.0006 9.9672Z" fill="#4D4D4D"/>
<path d="M4.06933 3.47266H2.60498V6.72263H4.06933V3.47266Z" fill="#4D4D4D"/>
<path d="M24.5741 14.3953C24.5741 31.9758 3.33691 22.561 3.33691 10.125" stroke="#4D4D4D" stroke-width="1.10652" stroke-miterlimit="22.93"/>
<path fill-rule="evenodd" clip-rule="evenodd" d="M7.55647 15.9878C8.54511 18.7911 9.41517 22.9938 10.9609 25.6964C14.204 31.369 19.3264 24.8429 14.0371 22.2699C11.5014 21.0372 6.92081 20.4016 4.31752 19.435C-2.30102 16.9806 5.39579 9.85879 7.55785 15.9878H7.55647Z" stroke="#4D4D4D" stroke-width="1.10652" stroke-miterlimit="22.93"/>
<path fill-rule="evenodd" clip-rule="evenodd" d="M6.88483 16.2415C8.26507 18.8751 9.72805 22.9083 11.6433 25.3627C15.6654 30.5127 19.8006 23.3206 14.1969 21.5308C11.5109 20.6732 6.88621 20.6994 4.17123 20.1161C-2.72997 18.6338 3.86788 10.4834 6.88483 16.2401V16.2415Z" stroke="#4D4D4D" stroke-width="1.10652" stroke-miterlimit="22.93"/>
<path fill-rule="evenodd" clip-rule="evenodd" d="M8.13401 15.8221C8.76415 18.7274 9.10335 23.0046 10.2988 25.8795C12.8084 31.912 18.7057 26.0767 13.7791 22.8639C11.4171 21.3237 6.95233 20.1214 4.4883 18.8377C-1.77173 15.5753 6.75377 9.47105 8.13263 15.8221H8.13401Z" stroke="#4D4D4D" stroke-width="1.10652" stroke-miterlimit="22.93"/>
</svg>
