<svg width="32" height="33" viewBox="0 0 32 33" fill="none" xmlns="http://www.w3.org/2000/svg">
<path d="M10.8237 5.70357C10.3511 4.97218 9.23389 4.75706 8.50342 5.31636C6.14014 7.20938 4.63623 10.0489 4.63623 13.2326H15.6362L10.8237 5.70357ZM25.9487 9.10239H23.8862C22.3394 9.10239 21.1362 10.3501 21.1362 11.8559V14.6094H4.63623C4.63623 16.8035 5.62451 18.7826 7.21436 20.2454C5.71045 20.6326 4.63623 21.9663 4.63623 23.5582C4.63623 25.4942 6.14014 27 8.07373 27C9.96436 27 11.5112 25.4942 11.5112 23.5582C11.5112 23.214 11.4253 22.8268 11.2964 22.4826C12.2417 22.7407 13.23 22.8698 14.2612 22.8698C15.2495 22.8698 16.2378 22.7407 17.1831 22.4826C17.0542 22.8268 17.0112 23.214 17.0112 23.5582C17.0112 25.4942 18.5151 27 20.4487 27C22.3394 27 23.8862 25.4942 23.8862 23.5582C23.8862 21.9663 22.769 20.6326 21.2651 20.2454C22.8979 18.7826 23.8862 16.8035 23.8862 14.6094V11.8559H25.9487C26.2925 11.8559 26.6362 11.5547 26.6362 11.1675V9.79076C26.6362 9.44658 26.2925 9.10239 25.9487 9.10239ZM8.07373 24.9349C7.30029 24.9349 6.69873 24.3326 6.69873 23.5582C6.69873 22.8268 7.30029 22.1814 8.07373 22.1814C8.8042 22.1814 9.44873 22.8268 9.44873 23.5582C9.44873 24.3326 8.8042 24.9349 8.07373 24.9349ZM21.8237 23.5582C21.8237 24.3326 21.1792 24.9349 20.4487 24.9349C19.6753 24.9349 19.0737 24.3326 19.0737 23.5582C19.0737 22.8268 19.6753 22.1814 20.4487 22.1814C21.1792 22.1814 21.8237 22.8268 21.8237 23.5582Z" fill="#393D4F"/>
</svg>
