<svg width="32" height="33" viewBox="0 0 32 33" fill="none" xmlns="http://www.w3.org/2000/svg">
<path fill-rule="evenodd" clip-rule="evenodd" d="M15.7448 5C18.6742 5 21.3458 6.12211 23.3547 7.95834C23.124 9.07201 23.0026 10.2441 23.0026 11.4518C23.0026 11.9622 23.0243 12.465 23.066 12.9578C22.1933 13.0226 21.3522 13.1109 20.5406 13.2203C19.0854 9.59659 16.7472 6.72294 13.8296 5.16573C14.4525 5.05889 15.0917 5 15.7448 5ZM23.809 11.4513C23.809 10.4873 23.8892 9.54746 24.0432 8.64467C25.1383 9.83292 25.9819 11.2562 26.49 12.8292C25.59 12.8316 24.7154 12.8554 23.8719 12.9028C23.8312 12.4275 23.809 11.9426 23.809 11.4513ZM20.0221 14.1056C18.8068 14.2887 17.6638 14.5201 16.5883 14.7898C17.3614 16.5031 17.8016 18.4539 17.8016 20.5234C17.8016 23.2113 17.2015 25.6268 16.0703 27.57C17.0258 27.5422 17.9734 27.3966 18.8919 27.1301C19.5233 26.9469 20.137 26.7079 20.7269 26.4176C20.7708 26.3959 20.814 26.3734 20.8574 26.3509L20.8576 26.3508L20.9067 26.3252L20.9998 25.8503C21.1914 24.6479 21.3894 23.4044 21.3894 22.1362C21.3893 19.2497 20.9022 16.5165 20.0221 14.1056ZM23.9626 13.7052C24.848 13.6561 25.7669 13.6331 26.7165 13.6352C26.9226 14.4871 27.0347 15.3754 27.0347 16.2898C27.0347 17.4446 26.8596 18.5595 26.5358 19.6095C25.2657 18.5216 24.3166 16.3084 23.9626 13.7052ZM7.3182 9.03209C7.27269 9.03209 7.22757 9.03035 7.18229 9.0286L7.12181 9.02645C5.83596 10.555 4.94972 12.4141 4.61022 14.431C4.60919 14.4384 4.60782 14.4454 4.60641 14.4527L4.60577 14.456C4.55941 14.735 4.52554 15.0173 4.50016 15.3016C4.49618 15.3474 4.49295 15.3938 4.48978 15.4397L4.48965 15.4416C4.46831 15.7226 4.45459 16.0047 4.45459 16.2898C4.45459 17.4571 4.63281 18.5836 4.96304 19.6436C7.27061 17.6963 10.6556 15.6103 15.428 14.2657C13.7001 11.1187 10.7117 9.03209 7.3182 9.03209ZM12.5596 5.46053L12.57 5.45766C15.6832 6.76044 18.19 9.61677 19.7233 13.3384C18.4859 13.5307 17.3215 13.7719 16.2264 14.0521C14.4619 10.7215 11.3806 8.44709 7.84157 8.24183C7.84882 8.23479 7.85558 8.22744 7.86233 8.22009V8.22007C7.86909 8.21272 7.87586 8.20537 7.88311 8.1983L7.88558 8.19598C7.89842 8.18388 7.91091 8.17213 7.92342 8.15998C8.32382 7.77371 8.75402 7.41767 9.20963 7.09265L9.25059 7.06335C9.27875 7.04314 9.30692 7.02295 9.33545 7.00313C9.54792 6.85637 9.76565 6.71604 9.98862 6.58338C10.0152 6.56771 10.0418 6.55255 10.0685 6.53742C10.0892 6.52566 10.1099 6.5139 10.1305 6.50192C10.3588 6.37011 10.591 6.24388 10.8297 6.12817L10.8338 6.12599C10.8392 6.12308 10.8444 6.12025 10.8499 6.11767C11.1002 5.9967 11.358 5.88703 11.6193 5.78423C11.6386 5.77677 11.6578 5.76911 11.677 5.76145C11.6964 5.75378 11.7155 5.74612 11.7349 5.73866C11.9974 5.63869 12.2644 5.54797 12.5365 5.46732C12.5441 5.4648 12.5519 5.46267 12.5596 5.46053ZM23.1517 13.759C22.3526 13.8177 21.5796 13.8965 20.8333 13.9932C21.711 16.4528 22.1961 19.2204 22.1961 22.1367C22.1961 23.4037 22.0119 24.6181 21.8247 25.7954C23.813 24.5193 25.3754 22.6383 26.2516 20.413C24.6864 19.245 23.5445 16.7491 23.1517 13.759ZM5.25537 20.4563C7.51857 18.493 10.9176 16.3492 15.8005 14.998C16.5613 16.6386 16.9956 18.5216 16.9956 20.5236C16.9956 23.2581 16.3469 25.6826 15.128 27.5624C10.6406 27.3193 6.84441 24.4431 5.25537 20.4563ZM8.48748 23.1447C8.57577 23.1447 8.6649 23.1157 8.73947 23.0562C8.91288 22.9166 8.94109 22.663 8.80157 22.4892C8.70719 22.3718 8.60399 22.2484 8.49714 22.1215L8.49239 22.1159C8.17981 21.7434 7.82641 21.3224 7.63748 20.9469C7.53706 20.7481 7.29472 20.6675 7.09596 20.7684C6.89719 20.8688 6.81694 21.1111 6.91736 21.3099C7.1493 21.7705 7.53652 22.2316 7.87852 22.6389L7.8798 22.6404C7.98265 22.7626 8.08183 22.8811 8.17255 22.9936C8.25242 23.0933 8.36932 23.1447 8.48748 23.1447ZM12.922 25.9677C13.0901 25.9677 13.2465 25.8621 13.3038 25.6944C13.3756 25.4835 13.2631 25.254 13.0522 25.1821C12.2938 24.9234 11.5318 24.5423 10.7228 24.016C10.5357 23.8948 10.2862 23.9476 10.1648 24.1342C10.0438 24.321 10.0967 24.5705 10.283 24.6927C11.1487 25.2555 11.9696 25.6656 12.7921 25.9459C12.8352 25.9604 12.8788 25.9677 12.922 25.9677Z" fill="#393D4F"/>
</svg>
