<svg width="32" height="33" viewBox="0 0 32 33" fill="none" xmlns="http://www.w3.org/2000/svg">
<path fill-rule="evenodd" clip-rule="evenodd" d="M20.1297 2.07261C19.5765 2.2561 19.1426 2.67216 18.9509 3.20306C18.858 3.46012 18.8456 3.63924 18.8503 4.65297C18.855 5.66512 18.8412 5.86391 18.7403 6.24431C18.5344 7.02037 18.2574 7.46001 17.7499 7.81643C17.1855 8.21288 16.5943 8.48173 15.937 8.64101C15.3551 8.78193 15.2949 8.769 15.2229 8.48791C15.0455 7.79489 14.4625 6.7887 13.9823 6.34651C13.2656 5.68654 11.7801 5.31827 10.912 5.5853C10.454 5.72622 10.1015 6.12284 10.0074 6.60317C9.98913 6.6967 9.87422 8.08489 9.75214 9.68807L9.53009 12.6029L7.5866 17.4537C6.51767 20.1217 5.61383 22.3473 5.5781 22.3995C5.54236 22.4517 4.87288 23.0585 4.09041 23.7479C3.30793 24.4373 2.54964 25.147 2.40529 25.3251C1.70845 26.1849 1.48383 27.3897 1.82183 28.4548C1.96207 28.8967 2.13969 29.2062 2.66603 29.9262C3.27351 30.7571 3.59695 30.9387 4.56142 30.9899C6.00972 31.067 7.68761 30.6986 9.13163 29.9866C10.1682 29.4756 8.90543 30.4195 23.2193 19.4564C27.2252 16.3883 27.349 16.2878 28.0275 15.5526C28.5984 14.934 28.9921 14.3779 29.2873 13.7732C29.6652 12.9993 29.7517 12.4933 29.5882 12.0133C29.4687 11.6625 29.2911 11.4462 28.7974 11.0506C28.5579 10.8587 28.241 10.5487 28.0933 10.3618C27.8339 10.0337 27.7475 9.88573 27.0838 8.63387C26.2724 7.10347 25.1315 5.55555 23.8211 4.20738C23.0223 3.38541 21.8857 2.41045 21.4879 2.20582C21.0733 1.99263 20.5311 1.93946 20.1297 2.07261ZM20.9179 3.00325C21.3482 3.1271 23.2363 4.87415 24.1958 6.03634C24.9763 6.98171 26.1937 8.77892 26.1573 8.93225C26.1489 8.96785 25.748 9.30183 25.2665 9.67447C24.7588 10.0673 24.3289 10.4457 24.2431 10.5749C24.0351 10.8884 23.8664 11.3051 23.8244 11.6095L23.7886 11.8692L23.2416 12.1855C20.9401 13.5171 19.1745 15.3791 17.8988 17.8203L17.6059 18.3808L17.004 18.7585C14.7335 20.1835 13.654 21.1437 11.8069 23.3816C9.16025 26.588 6.38799 28.3414 3.96461 28.3414C3.49698 28.3414 2.88539 28.2581 2.75916 28.1773C2.72217 28.1537 2.66373 27.9771 2.62925 27.7849C2.52277 27.1917 2.72709 26.4195 3.11893 25.9346C3.25277 25.769 6.01234 23.2959 6.22443 23.1514C6.28462 23.1104 7.30649 22.6387 8.49526 22.1032C9.74563 21.5399 10.8115 21.0234 11.024 20.8779C11.4856 20.5619 11.9321 20.0544 12.1791 19.565C12.284 19.3571 13.0871 17.0584 13.9637 14.4568C14.8403 11.8551 15.5636 9.72021 15.571 9.71256C15.5784 9.70491 15.7711 9.65866 15.9991 9.60985C16.5862 9.4843 17.1122 9.28902 17.6704 8.9895C18.5836 8.49953 19.0973 7.95605 19.4284 7.12971C19.7191 6.40399 19.7874 5.94071 19.7912 4.66601C19.7951 3.36211 19.8095 3.31353 20.2609 3.07461C20.5282 2.93313 20.6343 2.92162 20.9179 3.00325ZM12.4706 6.59637C13.1002 6.77192 13.517 7.11735 13.9036 7.78418C14.0941 8.11261 14.3587 8.73885 14.3228 8.77603C14.3114 8.78788 14.0996 8.76934 13.8523 8.73482C12.568 8.55576 11.7914 8.77394 11.0534 9.5212C10.8502 9.7269 10.684 9.86209 10.684 9.82173C10.684 9.45646 10.9175 6.80009 10.9584 6.70073C10.9875 6.62965 11.067 6.5466 11.135 6.51611C11.2929 6.44537 12.1035 6.49406 12.4706 6.59637ZM13.9444 9.71086L14.5509 9.77746L13.0103 14.3465C12.163 16.8595 11.3991 19.0404 11.3128 19.193C11.0874 19.5917 10.6441 20.0276 10.2593 20.2288C9.97227 20.3789 6.92439 21.7661 6.88166 21.7661C6.87312 21.7661 7.06819 21.2644 7.31514 20.6513L7.7641 19.5365L9.07358 19.1503C10.4918 18.7321 10.6293 18.6571 10.6293 18.3026C10.6293 18.0836 10.4132 17.8549 10.2064 17.8549C10.1214 17.8549 9.66601 17.9697 9.19418 18.11C8.72239 18.2503 8.31217 18.3651 8.28256 18.3651C8.25296 18.3651 8.33416 18.1039 8.46308 17.7846L8.69739 17.2041L9.51286 16.9632C11.2593 16.4474 11.2859 16.4339 11.2859 16.0668C11.2859 15.8219 11.0843 15.5875 10.8738 15.5875C10.7948 15.5875 10.3893 15.6896 9.97266 15.8143C9.55603 15.939 9.20386 16.041 9.19007 16.041C9.1602 16.041 9.58459 14.9539 9.63762 14.8946C9.65781 14.8721 10.129 14.7205 10.6847 14.5578C11.8005 14.231 11.9425 14.1465 11.9425 13.8096C11.9425 13.6604 11.9024 13.5787 11.7742 13.467C11.6816 13.3862 11.5683 13.3202 11.5224 13.3202C11.454 13.3202 11.0685 13.4278 10.182 13.6944C10.1101 13.716 10.1409 13.5976 10.3253 13.1448C10.4545 12.8274 10.5943 12.5486 10.6358 12.5253C10.6774 12.5019 11.0807 12.376 11.5321 12.2456C12.1565 12.0651 12.3824 11.9746 12.476 11.8676C12.6298 11.6917 12.6336 11.4535 12.4857 11.2589C12.3398 11.0667 12.1172 11.0634 11.5157 11.2447C11.2689 11.319 11.067 11.3567 11.067 11.3284C11.067 11.1842 11.4077 10.5288 11.5932 10.3161C12.1477 9.68031 12.6016 9.56348 13.9444 9.71086ZM27.4934 11.1319C27.6649 11.3299 27.9928 11.6381 28.222 11.8168C28.4512 11.9955 28.6638 12.2092 28.6944 12.2917C28.9149 12.8863 27.8842 14.5227 26.5917 15.6302C26.3325 15.8524 26.1706 15.9568 26.1538 15.9126C26.1392 15.8741 25.8308 15.1 25.4684 14.1925C24.7297 12.3418 24.6685 12.1492 24.716 11.8215C24.7852 11.3437 24.997 11.082 25.8415 10.4309L26.6279 9.82468L26.9048 10.2983C27.0571 10.5587 27.322 10.9339 27.4934 11.1319ZM24.6595 14.6948C25.047 15.6691 25.3668 16.4958 25.37 16.5321C25.3733 16.5684 23.5908 17.9657 21.4088 19.6373C16.8605 23.1218 17.302 22.8938 17.5489 21.6304C18.2306 18.1427 20.2745 15.1523 23.2419 13.3009C23.573 13.0944 23.8688 12.9249 23.8993 12.9244C23.9298 12.9239 24.2719 13.7206 24.6595 14.6948ZM17.0086 20.0231C16.6854 21.1838 16.4295 22.5611 16.4295 23.1401C16.4295 23.2766 16.3987 23.4283 16.3611 23.4772C16.2816 23.5806 10.0829 28.3265 9.67313 28.5977C8.97125 29.0622 8.00109 29.4938 7.15465 29.7181C6.29332 29.9462 5.84704 30.0057 4.9659 30.0098C4.01665 30.0141 3.84767 29.9607 3.56844 29.5679L3.40172 29.3334L4.21117 29.2964C5.16169 29.2529 5.92332 29.0714 6.8537 28.6666C8.76797 27.8338 10.8274 26.12 12.6576 23.8366C13.4861 22.8029 14.3121 21.9457 15.1612 21.2383C15.7888 20.7156 16.9035 19.9012 16.9967 19.8974C17.0228 19.8964 17.0281 19.9529 17.0086 20.0231Z" fill="#393D4F"/>
<path d="M22.561 16.4076C22.4265 15.6163 22.4259 15.4604 22.5562 15.29C22.6454 15.1732 22.7233 15.1341 22.8665 15.1341C23.2506 15.1341 23.3245 15.2507 23.4588 16.0694C23.5697 16.7446 23.5683 16.7603 23.383 16.9523C23.0381 17.3095 22.6731 17.0676 22.561 16.4076Z" fill="#393D4F"/>
<path d="M20.7068 17.5998C20.5853 16.9036 20.6244 16.6572 20.8729 16.5539C21.0388 16.4849 21.1016 16.4841 21.2651 16.5485C21.4569 16.624 21.5075 16.7491 21.6323 17.4569C21.7313 18.0185 21.7339 18.0938 21.6594 18.243C21.566 18.4301 21.4763 18.4784 21.2224 18.4784C20.9303 18.4784 20.8306 18.3085 20.7068 17.5998Z" fill="#393D4F"/>
<path d="M20.9179 3.00325C21.3482 3.1271 23.2363 4.87415 24.1958 6.03634C24.9763 6.98171 26.1937 8.77892 26.1573 8.93225C26.1489 8.96785 25.748 9.30183 25.2665 9.67447C24.7588 10.0673 24.3289 10.4457 24.2431 10.5749C24.0351 10.8884 23.8664 11.3051 23.8244 11.6095L23.7886 11.8692L23.2416 12.1855C20.9401 13.5171 19.1745 15.3791 17.8988 17.8203L17.6059 18.3808L17.004 18.7585C14.7335 20.1835 13.654 21.1437 11.8069 23.3816C9.16025 26.588 6.38799 28.3414 3.96461 28.3414C3.49698 28.3414 2.88539 28.2581 2.75916 28.1773C2.72217 28.1537 2.66373 27.9771 2.62925 27.7849C2.52277 27.1917 2.72709 26.4195 3.11893 25.9346C3.25277 25.769 6.01234 23.2959 6.22443 23.1514C6.28462 23.1104 7.30649 22.6387 8.49526 22.1032C9.74563 21.5399 10.8115 21.0234 11.024 20.8779C11.4856 20.5619 11.9321 20.0544 12.1791 19.565C12.284 19.3571 13.0871 17.0584 13.9637 14.4568C14.8403 11.8551 15.5636 9.72021 15.571 9.71256C15.5784 9.70491 15.7711 9.65866 15.9991 9.60985C16.5862 9.4843 17.1122 9.28902 17.6704 8.9895C18.5836 8.49953 19.0973 7.95605 19.4284 7.12971C19.7191 6.40399 19.7874 5.94071 19.7912 4.66601C19.7951 3.36211 19.8095 3.31353 20.2609 3.07461C20.5282 2.93313 20.6343 2.92162 20.9179 3.00325Z" fill="#393D4F"/>
</svg>
