<svg width="32" height="33" viewBox="0 0 32 33" fill="none" xmlns="http://www.w3.org/2000/svg">
<path d="M15 10.5V23.5C15 23.7652 14.8946 24.0196 14.7071 24.2071C14.5196 24.3946 14.2652 24.5 14 24.5H12V26.5H14C14.2652 26.5 14.5196 26.6054 14.7071 26.7929C14.8946 26.9804 15 27.2348 15 27.5C15 27.7652 14.8946 28.0196 14.7071 28.2071C14.5196 28.3946 14.2652 28.5 14 28.5H8C7.73478 28.5 7.48043 28.3946 7.29289 28.2071C7.10536 28.0196 7 27.7652 7 27.5C7 27.2348 7.10536 26.9804 7.29289 26.7929C7.48043 26.6054 7.73478 26.5 8 26.5H10V24.5H4C3.20536 24.4967 2.44421 24.1796 1.88232 23.6177C1.32042 23.0558 1.00329 22.2946 1 21.5V12.5C1.00329 11.7054 1.32042 10.9442 1.88232 10.3823C2.44421 9.82042 3.20536 9.50329 4 9.5H14C14.2652 9.5 14.5196 9.60536 14.7071 9.79289C14.8946 9.98043 15 10.2348 15 10.5ZM31 6.5V26.5C31 27.0304 30.7893 27.5391 30.4142 27.9142C30.0391 28.2893 29.5304 28.5 29 28.5H19C18.4696 28.5 17.9609 28.2893 17.5858 27.9142C17.2107 27.5391 17 27.0304 17 26.5V6.5C17 5.96957 17.2107 5.46086 17.5858 5.08579C17.9609 4.71071 18.4696 4.5 19 4.5H29C29.5304 4.5 30.0391 4.71071 30.4142 5.08579C30.7893 5.46086 31 5.96957 31 6.5ZM25.5 23C25.5 22.7033 25.412 22.4133 25.2472 22.1666C25.0824 21.92 24.8481 21.7277 24.574 21.6142C24.2999 21.5007 23.9983 21.4709 23.7074 21.5288C23.4164 21.5867 23.1491 21.7296 22.9393 21.9393C22.7296 22.1491 22.5867 22.4164 22.5288 22.7074C22.4709 22.9983 22.5007 23.2999 22.6142 23.574C22.7277 23.8481 22.92 24.0824 23.1666 24.2472C23.4133 24.412 23.7033 24.5 24 24.5C24.3978 24.5 24.7794 24.342 25.0607 24.0607C25.342 23.7794 25.5 23.3978 25.5 23ZM28 13.5C28 13.2348 27.8946 12.9804 27.7071 12.7929C27.5196 12.6054 27.2652 12.5 27 12.5H21C20.7348 12.5 20.4804 12.6054 20.2929 12.7929C20.1054 12.9804 20 13.2348 20 13.5C20 13.7652 20.1054 14.0196 20.2929 14.2071C20.4804 14.3946 20.7348 14.5 21 14.5H27C27.2652 14.5 27.5196 14.3946 27.7071 14.2071C27.8946 14.0196 28 13.7652 28 13.5ZM28 9.5C28 9.23478 27.8946 8.98043 27.7071 8.79289C27.5196 8.60536 27.2652 8.5 27 8.5H21C20.7348 8.5 20.4804 8.60536 20.2929 8.79289C20.1054 8.98043 20 9.23478 20 9.5C20 9.76522 20.1054 10.0196 20.2929 10.2071C20.4804 10.3946 20.7348 10.5 21 10.5H27C27.2652 10.5 27.5196 10.3946 27.7071 10.2071C27.8946 10.0196 28 9.76522 28 9.5Z" fill="#393D4F"/>
</svg>
