<svg width="32" height="33" viewBox="0 0 32 33" fill="none" xmlns="http://www.w3.org/2000/svg">
<path d="M30 26.5H29V13.5C29 12.9696 28.7893 12.4609 28.4142 12.0858C28.0391 11.7107 27.5304 11.5 27 11.5H19V5.5C19 4.96957 18.7893 4.46086 18.4142 4.08579C18.0391 3.71071 17.5304 3.5 17 3.5H5C4.46957 3.5 3.96086 3.71071 3.58579 4.08579C3.21071 4.46086 3 4.96957 3 5.5V26.5H2C1.73478 26.5 1.48043 26.6054 1.29289 26.7929C1.10536 26.9804 1 27.2348 1 27.5C1 27.7652 1.10536 28.0196 1.29289 28.2071C1.48043 28.3946 1.73478 28.5 2 28.5H30C30.2652 28.5 30.5196 28.3946 30.7071 28.2071C30.8946 28.0196 31 27.7652 31 27.5C31 27.2348 30.8946 26.9804 30.7071 26.7929C30.5196 26.6054 30.2652 26.5 30 26.5ZM15 17.5C15 17.7652 14.8946 18.0196 14.7071 18.2071C14.5196 18.3946 14.2652 18.5 14 18.5H10C9.73478 18.5 9.48043 18.3946 9.29289 18.2071C9.10536 18.0196 9 17.7652 9 17.5C9 17.2348 9.10536 16.9804 9.29289 16.7929C9.48043 16.6054 9.73478 16.5 10 16.5H14C14.2652 16.5 14.5196 16.6054 14.7071 16.7929C14.8946 16.9804 15 17.2348 15 17.5ZM8 8.5H12C12.2652 8.5 12.5196 8.60536 12.7071 8.79289C12.8946 8.98043 13 9.23478 13 9.5C13 9.76522 12.8946 10.0196 12.7071 10.2071C12.5196 10.3946 12.2652 10.5 12 10.5H8C7.73478 10.5 7.48043 10.3946 7.29289 10.2071C7.10536 10.0196 7 9.76522 7 9.5C7 9.23478 7.10536 8.98043 7.29289 8.79289C7.48043 8.60536 7.73478 8.5 8 8.5ZM8 21.5H12C12.2652 21.5 12.5196 21.6054 12.7071 21.7929C12.8946 21.9804 13 22.2348 13 22.5C13 22.7652 12.8946 23.0196 12.7071 23.2071C12.5196 23.3946 12.2652 23.5 12 23.5H8C7.73478 23.5 7.48043 23.3946 7.29289 23.2071C7.10536 23.0196 7 22.7652 7 22.5C7 22.2348 7.10536 21.9804 7.29289 21.7929C7.48043 21.6054 7.73478 21.5 8 21.5ZM19 13.5H27V26.5H19V13.5Z" fill="#393D4F"/>
<path d="M24 21.5H22C21.7348 21.5 21.4804 21.6054 21.2929 21.7929C21.1054 21.9804 21 22.2348 21 22.5C21 22.7652 21.1054 23.0196 21.2929 23.2071C21.4804 23.3946 21.7348 23.5 22 23.5H24C24.2652 23.5 24.5196 23.3946 24.7071 23.2071C24.8946 23.0196 25 22.7652 25 22.5C25 22.2348 24.8946 21.9804 24.7071 21.7929C24.5196 21.6054 24.2652 21.5 24 21.5Z" fill="#393D4F"/>
<path d="M22 18.5H24C24.2652 18.5 24.5196 18.3946 24.7071 18.2071C24.8946 18.0196 25 17.7652 25 17.5C25 17.2348 24.8946 16.9804 24.7071 16.7929C24.5196 16.6054 24.2652 16.5 24 16.5H22C21.7348 16.5 21.4804 16.6054 21.2929 16.7929C21.1054 16.9804 21 17.2348 21 17.5C21 17.7652 21.1054 18.0196 21.2929 18.2071C21.4804 18.3946 21.7348 18.5 22 18.5Z" fill="#393D4F"/>
</svg>
