<svg width="32" height="33" viewBox="0 0 32 33" fill="none" xmlns="http://www.w3.org/2000/svg">
<path d="M16.2872 7.17854C17.4093 7.17854 18.3786 6.46298 18.7268 5.4104C18.0624 5.59326 17.2157 5.70364 16.2872 5.70364C15.3586 5.70364 14.5119 5.59326 13.8477 5.4104C14.1957 6.46289 15.1648 7.17854 16.2872 7.17854Z" fill="#393D4F"/>
<path d="M29.2077 8.47312C29.1543 8.32364 29.0435 8.2006 28.8991 8.13373L23.9599 5.85356C22.9092 5.49766 21.8388 5.21652 20.7581 5.01104C20.7201 5.00358 20.6822 5 20.6449 5C20.3772 5 20.1377 5.1847 20.0781 5.45558C19.6835 7.19312 18.1453 8.49393 16.2866 8.49393C14.4278 8.49393 12.8897 7.19312 12.4951 5.45558C12.4348 5.1847 12.1957 5 11.9282 5C11.8909 5 11.8531 5.00358 11.815 5.01104C10.7343 5.21652 9.66394 5.49766 8.61165 5.85356L3.67422 8.13358C3.52886 8.2006 3.41719 8.32349 3.36643 8.47312C3.31392 8.6244 3.32338 8.7877 3.39737 8.9305L5.5416 13.1621C5.64198 13.363 5.84615 13.4835 6.06215 13.4835C6.1179 13.4835 6.17444 13.4754 6.2302 13.4587L8.61174 12.7528V26.9516C8.61174 27.274 8.87481 27.5371 9.19811 27.5371H23.3752C23.6976 27.5371 23.9599 27.2739 23.9599 26.9516V12.753L26.3432 13.4588C26.3989 13.4756 26.4554 13.4836 26.511 13.4836C26.7266 13.4836 26.93 13.3631 27.0318 13.1624L29.1768 8.93065C29.249 8.78785 29.2594 8.62454 29.2077 8.47312Z" fill="#393D4F"/>
</svg>
