<svg width="32" height="33" viewBox="0 0 32 33" fill="none" xmlns="http://www.w3.org/2000/svg">
<path d="M29 12.475V12.425C28.9946 12.4044 28.9904 12.3836 28.9875 12.3625V12.325C28.975 12.3 28.975 12.275 28.9625 12.25V12.225L27.175 5.95C27.0518 5.53397 26.7983 5.16851 26.4517 4.90746C26.1051 4.6464 25.6839 4.50357 25.25 4.5H6.75C6.31613 4.50357 5.89488 4.6464 5.54831 4.90746C5.20174 5.16851 4.94819 5.53397 4.825 5.95L3.0375 12.225V12.25C3.025 12.275 3.025 12.3 3.0125 12.325V12.3625C3.00957 12.3836 3.0054 12.4044 3 12.425V14.5C3 15.2762 3.18073 16.0418 3.52786 16.7361C3.875 17.4303 4.37902 18.0343 5 18.5V26.5C5 27.0304 5.21071 27.5391 5.58579 27.9142C5.96086 28.2893 6.46957 28.5 7 28.5H25C25.5304 28.5 26.0391 28.2893 26.4142 27.9142C26.7893 27.5391 27 27.0304 27 26.5V18.5C27.621 18.0343 28.125 17.4303 28.4721 16.7361C28.8193 16.0418 29 15.2762 29 14.5V12.475ZM5 13.5H11V14.5C11.0005 15.016 10.8678 15.5233 10.6149 15.973C10.3621 16.4228 9.99746 16.7997 9.55636 17.0674C9.11527 17.335 8.6126 17.4844 8.09691 17.5011C7.58123 17.5177 7.06996 17.4011 6.6125 17.1625C6.54336 17.1077 6.4678 17.0615 6.3875 17.025C5.96211 16.7552 5.61184 16.3823 5.36926 15.9408C5.12667 15.4994 4.99965 15.0037 5 14.5V13.5ZM19 14.5C19 15.2956 18.6839 16.0587 18.1213 16.6213C17.5587 17.1839 16.7956 17.5 16 17.5C15.2044 17.5 14.4413 17.1839 13.8787 16.6213C13.3161 16.0587 13 15.2956 13 14.5V13.5H19V14.5ZM25.6125 17.025C25.5322 17.0615 25.4566 17.1077 25.3875 17.1625C24.93 17.4011 24.4188 17.5177 23.9031 17.5011C23.3874 17.4844 22.8847 17.335 22.4436 17.0674C22.0025 16.7997 21.6379 16.4228 21.3851 15.973C21.1322 15.5233 20.9995 15.016 21 14.5V13.5H27V14.5C27.0003 15.0037 26.8733 15.4994 26.6307 15.9408C26.3882 16.3823 26.0379 16.7552 25.6125 17.025Z" fill="#393D4F"/>
</svg>
