<svg width="32" height="33" viewBox="0 0 32 33" fill="none" xmlns="http://www.w3.org/2000/svg">
<path d="M13.8125 6.9C13.5776 6.66097 13.2854 6.48607 12.9638 6.39198C12.6421 6.29789 12.3017 6.28774 11.975 6.3625C11.6454 6.43536 11.3395 6.59049 11.086 6.81343C10.8324 7.03637 10.6394 7.31987 10.525 7.6375L3.78752 26.15C3.68245 26.4513 3.65053 26.7733 3.6944 27.0893C3.73827 27.4054 3.85666 27.7065 4.03981 27.9678C4.22296 28.2291 4.46562 28.4431 4.74777 28.5921C5.02991 28.7412 5.34345 28.821 5.66252 28.825C5.8963 28.8253 6.12855 28.7873 6.35002 28.7125L24.8625 21.975C25.1802 21.8606 25.4636 21.6676 25.6866 21.4141C25.9095 21.1605 26.0647 20.8547 26.1375 20.525C26.2123 20.1983 26.2021 19.8579 26.108 19.5363C26.0139 19.2146 25.8391 18.9224 25.6 18.6875L13.8125 6.9ZM7.97502 20.475L10.375 13.875L18.625 22.125L12.025 24.525L7.97502 20.475ZM20 9.5C20.0184 8.82369 20.1803 8.15901 20.475 7.55C21.1375 6.225 22.3875 5.5 24 5.5C24.8375 5.5 25.375 5.2125 25.7125 4.6C25.8846 4.25316 25.9825 3.87428 26 3.4875C26 3.35676 26.026 3.22732 26.0764 3.10669C26.1268 2.98606 26.2006 2.87664 26.2937 2.78478C26.3867 2.69291 26.497 2.62044 26.6183 2.57155C26.7395 2.52267 26.8693 2.49835 27 2.5C27.2652 2.5 27.5196 2.60536 27.7071 2.79289C27.8947 2.98043 28 3.23478 28 3.5C28 5.1125 26.9375 7.5 24 7.5C23.1625 7.5 22.625 7.7875 22.2875 8.4C22.1155 8.74684 22.0176 9.12572 22 9.5125C22 9.64324 21.9741 9.77268 21.9237 9.89331C21.8733 10.0139 21.7994 10.1234 21.7064 10.2152C21.6134 10.3071 21.503 10.3796 21.3818 10.4284C21.2605 10.4773 21.1307 10.5017 21 10.5C20.7348 10.5 20.4804 10.3946 20.2929 10.2071C20.1054 10.0196 20 9.76522 20 9.5ZM17 5.5V2.5C17 2.23478 17.1054 1.98043 17.2929 1.79289C17.4804 1.60536 17.7348 1.5 18 1.5C18.2652 1.5 18.5196 1.60536 18.7071 1.79289C18.8947 1.98043 19 2.23478 19 2.5V5.5C19 5.76522 18.8947 6.01957 18.7071 6.20711C18.5196 6.39464 18.2652 6.5 18 6.5C17.7348 6.5 17.4804 6.39464 17.2929 6.20711C17.1054 6.01957 17 5.76522 17 5.5ZM29.7125 15.7875C29.9003 15.9771 30.0056 16.2332 30.0056 16.5C30.0056 16.7668 29.9003 17.0229 29.7125 17.2125C29.5214 17.3973 29.2659 17.5006 29 17.5006C28.7341 17.5006 28.4787 17.3973 28.2875 17.2125L26.2875 15.2125C26.1281 15.0182 26.0466 14.7715 26.0589 14.5205C26.0712 14.2694 26.1765 14.0319 26.3542 13.8542C26.532 13.6765 26.7695 13.5712 27.0205 13.5589C27.2716 13.5465 27.5182 13.628 27.7125 13.7875L29.7125 15.7875ZM30.3125 10.45L27.3125 11.45C27.2121 11.4847 27.1063 11.5017 27 11.5C26.7622 11.5001 26.5321 11.4154 26.3511 11.2611C26.1701 11.1068 26.05 10.8931 26.0124 10.6582C25.9747 10.4234 26.022 10.1828 26.1458 9.97973C26.2695 9.77662 26.4616 9.62426 26.6875 9.55L29.6875 8.55C29.8123 8.50896 29.9439 8.4929 30.0749 8.50273C30.2058 8.51255 30.3336 8.54808 30.4508 8.60728C30.568 8.66648 30.6725 8.74818 30.7581 8.84774C30.8438 8.94729 30.909 9.06274 30.95 9.1875C30.9911 9.31226 31.0071 9.44387 30.9973 9.57484C30.9875 9.7058 30.9519 9.83355 30.8927 9.95078C30.8335 10.068 30.7518 10.1724 30.6523 10.2581C30.5527 10.3438 30.4373 10.409 30.3125 10.45Z" fill="#393D4F"/>
</svg>
