<svg width="19" height="22" viewBox="0 0 19 22" fill="none" xmlns="http://www.w3.org/2000/svg">
<path d="M9.5 9.5C8.37283 9.5 7.29183 9.05223 6.4948 8.2552C5.69777 7.45817 5.25 6.37717 5.25 5.25C5.25 4.12283 5.69777 3.04183 6.4948 2.2448C7.29183 1.44777 8.37283 1 9.5 1C10.6272 1 11.7082 1.44777 12.5052 2.2448C13.3022 3.04183 13.75 4.12283 13.75 5.25C13.75 6.37717 13.3022 7.45817 12.5052 8.2552C11.7082 9.05223 10.6272 9.5 9.5 9.5Z" stroke="#92929D" stroke-width="1.8" stroke-linecap="round"/>
<path d="M1 20.8333V19.4167C1 17.9138 1.59702 16.4724 2.65973 15.4097C3.72243 14.347 5.16377 13.75 6.66667 13.75H12.3333C13.8362 13.75 15.2776 14.347 16.3403 15.4097C17.403 16.4724 18 17.9138 18 19.4167V20.8333" stroke="#92929D" stroke-width="1.8" stroke-linecap="round"/>
</svg>
