<svg width="32" height="33" viewBox="0 0 32 33" fill="none" xmlns="http://www.w3.org/2000/svg">
<path d="M4 16.2118C4.16208 15.7748 4.4792 15.5987 4.93021 15.6269C5.19799 15.648 5.45873 15.6269 5.72652 15.6339C5.87451 15.6409 5.93793 15.6128 5.92384 15.4436C5.90974 15.2745 5.91679 14.9997 5.92384 14.7742C5.93088 14.3302 6.17048 14.0977 6.6074 14.0977H8.69332C9.12318 14.0977 9.36278 14.3302 9.37688 14.7601C9.38392 14.9997 9.38393 15.2393 9.36983 15.4789C9.36983 15.6057 9.41211 15.6339 9.53191 15.6339C10.145 15.648 10.145 15.655 10.145 15.042V14.8235C10.1521 14.3232 10.3776 14.0977 10.8779 14.0977H12.9145C13.3514 14.0977 13.591 14.3302 13.598 14.7742C13.6027 14.9997 13.6027 15.2252 13.598 15.4507C13.591 15.5916 13.6192 15.648 13.7742 15.6339C14.042 15.6198 14.3027 15.6269 14.5705 15.6339C14.7115 15.6409 14.7679 15.6128 14.7538 15.4577C14.7397 15.3027 14.7467 14.9926 14.7538 14.7601C14.7679 14.3302 15.0074 14.0977 15.4303 14.0977H17.5373C17.9461 14.0977 18.1927 14.3302 18.2068 14.746C18.2162 14.9856 18.2162 15.2252 18.2068 15.4648C18.1998 15.6057 18.2491 15.6409 18.3759 15.6339C18.5028 15.6269 18.7635 15.6269 18.9538 15.6339C19.44 15.6409 19.743 15.9369 19.743 16.4302V21.349C19.743 21.8635 19.44 22.1594 18.9185 22.1594H14.6974C11.4417 22.1594 8.18593 22.1524 4.93021 22.1665C4.4792 22.1665 4.16208 22.0185 4 21.5816V16.2118Z" fill="#393D4F"/>
<path d="M4 23.1181C4.16208 22.6883 4.47215 22.5332 4.93021 22.5403C7.01612 22.5544 9.10204 22.5473 11.188 22.5473C11.794 22.5473 12.0618 22.8151 12.0618 23.4211V28.192C12.0618 28.798 11.794 29.0728 11.188 29.0728C9.10204 29.0728 7.01612 29.0658 4.93021 29.0799C4.47215 29.0799 4.16208 28.9319 4 28.495V23.1181Z" fill="#393D4F"/>
<path d="M17.9671 4.5C17.9757 4.50976 17.9807 4.52221 17.9812 4.53524C17.9614 4.55616 17.9376 4.57295 17.9112 4.58463C17.8849 4.59632 17.8565 4.60268 17.8276 4.60333C17.7988 4.60399 17.7702 4.59893 17.7433 4.58845C17.7164 4.57797 17.6919 4.56228 17.6711 4.54228C17.6768 4.52894 17.6792 4.51445 17.6782 4.5H17.9671Z" fill="#393D4F"/>
<path d="M17.6714 4.54224H17.9815C18.0676 4.55725 18.1494 4.59092 18.2211 4.64089L20.0886 5.76137C20.4691 5.98687 20.5537 6.29694 20.3423 6.69158C20.2154 6.93822 20.0815 7.18487 19.9335 7.42447C19.8701 7.53017 19.8772 7.58655 19.9899 7.64292C20.1027 7.6993 20.3564 7.84729 20.5325 7.95299C20.7087 8.0587 20.6594 7.99527 20.7087 7.90366C20.8426 7.65702 20.9765 7.41037 21.1174 7.17077C21.3288 6.80433 21.646 6.71272 22.0124 6.91708C22.6748 7.30467 23.3302 7.6993 23.9856 8.10098C24.3027 8.29125 24.3802 8.61541 24.197 8.96776C24.0842 9.20032 23.9574 9.41877 23.8235 9.63723C23.6896 9.85569 23.7671 9.81341 23.8869 9.87683C24.0583 9.96237 24.2253 10.0564 24.3873 10.1587C24.493 10.2292 24.5493 10.2221 24.6057 10.1023C24.6621 9.98253 24.8312 9.68656 24.9581 9.47515C25.1695 9.1087 25.4866 9.01005 25.846 9.22146C26.5155 9.60904 27.1779 10.0107 27.8403 10.4124C27.9681 10.4828 28.0646 10.5989 28.1103 10.7374C28.1561 10.876 28.1477 11.0267 28.0869 11.1594C27.9957 11.3547 27.8946 11.5452 27.7839 11.7302C27.6289 12.0121 27.6289 12.0121 27.9178 12.1742C27.9954 12.2146 28.0707 12.2593 28.1433 12.3081C28.5873 12.5688 28.693 12.9564 28.4322 13.4074L26.297 17.0648C26.2124 17.2128 26.1349 17.3537 26.0433 17.5017C25.7685 17.9598 25.395 18.0655 24.9299 17.8047L22.3929 16.353L12.9429 10.9409C12.809 10.8634 12.6751 10.7859 12.5905 10.659C12.5036 10.5476 12.4529 10.4122 12.4453 10.2711C12.4378 10.1299 12.4737 9.98986 12.5483 9.86978C13.3751 8.45568 14.202 7.04393 15.0288 5.63452C15.2402 5.26808 15.6208 5.16942 16.0013 5.35969C16.2127 5.4654 16.4241 5.5852 16.6285 5.71204C16.8328 5.83889 16.7835 5.76137 16.8399 5.64862C16.9808 5.38083 17.1288 5.12009 17.2839 4.85935C17.3684 4.70432 17.4741 4.56338 17.6714 4.54224Z" fill="#393D4F"/>
<path d="M20.7087 29.0725H13.7321C13.0979 29.0725 12.8301 28.8047 12.8301 28.1705V23.442C12.8301 22.8077 13.0979 22.547 13.7391 22.547C16.9385 22.547 20.1378 22.5399 23.3372 22.547C23.5557 22.554 23.605 22.4906 23.5838 22.2863C23.5733 22.0867 23.5733 21.8868 23.5838 21.6873C23.5909 21.2433 23.8305 21.0107 24.2674 21.0107H26.3533C26.7832 21.0107 27.0228 21.2362 27.0369 21.6661C27.0439 21.9128 27.0439 22.1665 27.0369 22.4131C27.0298 22.5118 27.0651 22.547 27.1708 22.547C27.3892 22.5399 27.6147 22.5399 27.8402 22.547C28.0346 22.547 28.221 22.6242 28.3585 22.7617C28.4959 22.8991 28.5731 23.0855 28.5731 23.2799C28.5731 24.9641 28.5802 26.6554 28.5731 28.3396C28.5661 28.7907 28.2349 29.0725 27.7416 29.0725H20.7087Z" fill="#393D4F"/>
<path d="M11.8717 21.3921H5.01492C4.81761 21.3921 4.76123 21.3498 4.76123 21.1454C4.77532 19.6373 4.77532 18.1222 4.76123 16.6142C4.76123 16.431 4.81056 16.3887 4.98674 16.3887H18.7566C18.9257 16.3887 18.9821 16.4239 18.9821 16.6071C18.968 18.1293 18.9751 19.6514 18.9821 21.1665C18.9821 21.3498 18.9328 21.3921 18.7566 21.3921H11.8717Z" fill="#393D4F"/>
<path d="M7.6646 14.8664C7.91829 14.8664 8.17198 14.8735 8.43272 14.8594C8.55252 14.8594 8.6089 14.8805 8.61594 15.0285C8.62299 15.6346 8.63004 15.6346 8.03104 15.6346C7.65755 15.6346 7.27701 15.6275 6.90352 15.6346C6.74848 15.6416 6.68506 15.6134 6.68506 15.4302C6.69211 14.8664 6.67801 14.8664 7.25587 14.8664H7.6646Z" fill="white"/>
<path d="M11.8857 15.6345C11.6109 15.6345 11.3431 15.6275 11.0683 15.6345C10.9414 15.6416 10.9133 15.5993 10.9062 15.4725C10.8921 14.8664 10.8851 14.8664 11.4841 14.8664C11.8787 14.8664 12.2733 14.8735 12.6609 14.8594C12.8019 14.8594 12.83 14.9017 12.8371 15.0356C12.8441 15.6345 12.8512 15.6345 12.2663 15.6345H11.8857Z" fill="white"/>
<path d="M16.4947 14.8664C16.7554 14.8664 17.0162 14.8735 17.2839 14.8594C17.4108 14.8594 17.439 14.9087 17.439 15.0285C17.4601 15.6345 17.4601 15.6345 16.8611 15.6345C16.4806 15.6345 16.093 15.6275 15.7125 15.6345C15.5504 15.6416 15.5151 15.5852 15.5151 15.4372C15.5151 14.8664 15.5081 14.8664 16.086 14.8664H16.4947Z" fill="white"/>
<path d="M8.0308 28.3049C7.01603 28.3049 6.00126 28.2979 4.98649 28.312C4.81032 28.312 4.76099 28.2697 4.76099 28.0865C4.77508 26.5714 4.77508 25.0492 4.76099 23.5341C4.76099 23.3509 4.80327 23.3086 4.98649 23.3086C7.01603 23.3133 9.04557 23.3133 11.0751 23.3086C11.2513 23.3086 11.3006 23.3509 11.3006 23.5271C11.2936 25.0492 11.2936 26.5643 11.3006 28.0865C11.3006 28.2627 11.2583 28.312 11.0751 28.312C10.0603 28.2979 9.04558 28.3049 8.0308 28.3049Z" fill="#393D4F"/>
<path d="M25.3102 17.1279L25.1622 17.0434L13.4359 10.3417C13.2879 10.2571 13.2316 10.2078 13.3443 10.0245C14.0842 8.77017 14.8242 7.50876 15.55 6.24029C15.6487 6.07116 15.7121 6.07116 15.8742 6.16277L27.5934 12.8645C27.7343 12.942 27.7837 12.9984 27.685 13.1675C26.938 14.4289 26.2051 15.6974 25.4581 16.9659C25.4229 17.0293 25.4159 17.1279 25.3102 17.1279Z" fill="#393D4F"/>
<path d="M19.6163 6.41687C19.5176 6.6001 19.3978 6.78332 19.3062 6.98064C19.2146 7.17795 19.1582 7.1709 18.9962 7.07225C18.531 6.79037 18.0589 6.52258 17.5867 6.26184C17.4599 6.19137 17.4247 6.14204 17.5092 6.00815C17.6212 5.83604 17.7224 5.65717 17.8123 5.47257C17.8757 5.35277 17.9321 5.35277 18.0307 5.4162L19.5106 6.30412C19.5529 6.32526 19.6163 6.33936 19.6163 6.41687Z" fill="white"/>
<path d="M23.4567 8.72851C23.3369 8.93287 23.2171 9.15133 23.0902 9.36274C23.055 9.41207 22.9986 9.35569 22.9634 9.33455L21.4271 8.46072C21.3355 8.40435 21.3214 8.36206 21.3708 8.27045C21.4757 8.11008 21.5698 7.94293 21.6527 7.77011C21.7161 7.65031 21.7725 7.66441 21.8711 7.72079L23.351 8.60871C23.3933 8.6369 23.4567 8.64394 23.4567 8.72851Z" fill="white"/>
<path d="M27.2974 11.0252C27.1917 11.2014 27.093 11.3987 26.9802 11.5749C26.938 11.6383 26.8745 11.5749 26.8323 11.5467L25.3171 10.687C25.2044 10.6235 25.2185 10.5742 25.2678 10.4756C25.5426 9.92589 25.5426 9.92589 26.0782 10.243L27.1635 10.8913C27.2128 10.9266 27.2833 10.9407 27.2974 11.0252Z" fill="white"/>
<path d="M20.7295 23.3157H27.5651C27.7695 23.3157 27.8117 23.365 27.8117 23.5623C27.8023 25.0798 27.8023 26.5902 27.8117 28.0935C27.8117 28.2838 27.7554 28.3191 27.5862 28.3191C22.9963 28.3144 18.4063 28.3144 13.8164 28.3191C13.6331 28.3191 13.5908 28.2697 13.5979 28.0935C13.6049 26.5714 13.6049 25.0563 13.5979 23.5341C13.5908 23.3509 13.6472 23.3157 13.8234 23.3157H20.7295Z" fill="#393D4F"/>
<path d="M25.31 22.5474C25.0422 22.5474 24.7673 22.5404 24.4996 22.5474C24.3868 22.5474 24.3516 22.5192 24.3445 22.3994C24.3163 21.7793 24.3163 21.7793 24.9294 21.7793H26.0992C26.2331 21.7793 26.2684 21.8145 26.2754 21.9555C26.2824 22.5545 26.2895 22.5545 25.6905 22.5545L25.31 22.5474Z" fill="white"/>
</svg>
