<svg width="32" height="33" viewBox="0 0 32 33" fill="none" xmlns="http://www.w3.org/2000/svg">
<path d="M9.86527 14.3535C10.5624 14.3535 11.1645 13.909 11.3808 13.2551C10.9681 13.3687 10.4421 13.4373 9.86527 13.4373C9.28844 13.4373 8.76247 13.3687 8.34985 13.2551C8.56604 13.9089 9.16807 14.3535 9.86527 14.3535Z" fill="#393D4F"/>
<path d="M17.8915 15.1575C17.8584 15.0646 17.7895 14.9882 17.6998 14.9467L14.6316 13.5302C13.9789 13.3091 13.314 13.1345 12.6427 13.0069C12.619 13.0022 12.5955 13 12.5723 13C12.4061 13 12.2573 13.1147 12.2203 13.283C11.9751 14.3624 11.0196 15.1704 9.86494 15.1704C8.71027 15.1704 7.75479 14.3624 7.50972 13.283C7.47224 13.1147 7.32372 13 7.15756 13C7.13439 13 7.11086 13.0022 7.08722 13.0069C6.41587 13.1345 5.75098 13.3091 5.0973 13.5302L2.03017 14.9466C1.93987 14.9882 1.8705 15.0645 1.83897 15.1575C1.80635 15.2515 1.81223 15.3529 1.85819 15.4416L3.19019 18.0703C3.25254 18.1951 3.37937 18.2699 3.51355 18.2699C3.54818 18.2699 3.58331 18.2649 3.61794 18.2545L5.09735 17.8161V26.6363C5.09735 26.8366 5.26077 27 5.46161 27H14.2684C14.4687 27 14.6316 26.8365 14.6316 26.6363V17.8161L16.1121 18.2546C16.1467 18.265 16.1818 18.27 16.2163 18.27C16.3503 18.27 16.4767 18.1952 16.5399 18.0705L17.8723 15.4417C17.9172 15.353 17.9237 15.2516 17.8915 15.1575Z" fill="#393D4F"/>
<path d="M29.7492 9.57312L29.3853 9.06768C29.3742 8.49364 29.1898 7.88787 28.8002 7.34838C28.3491 6.72224 27.4096 6.06804 26.5083 6.00367C26.4879 6.00254 26.1563 6.00134 25.6445 6.00021C25.4703 5.99986 25.3207 6.1224 25.2865 6.29316C25.0557 7.44961 24.0439 8.3233 22.8182 8.3233C21.5922 8.3233 20.5798 7.44961 20.3495 6.29308C20.3155 6.12267 20.1656 5.99973 19.9917 6C19.4837 6.00092 19.1535 6.00262 19.1279 6.00367C18.2286 6.06783 17.288 6.72104 16.836 7.34838C16.4472 7.8878 16.262 8.49364 16.2509 9.06768L15.8877 9.57312C15.8308 9.65067 15.8073 9.74831 15.8232 9.84384C15.8391 9.94015 15.8919 10.0246 15.9702 10.0814L18.1602 11.6546C18.3231 11.773 18.5511 11.7363 18.6691 11.5729L19.0011 11.111C19.4006 12.1077 19.5744 13.1736 19.5144 14.2325C18.6533 16.0479 18.0793 18.5213 18.0793 21.2481C18.0793 22.3249 18.7363 24.9099 19.2138 26.5866C19.2835 26.831 19.507 27 19.7612 27H25.8751C26.1298 27 26.3528 26.8314 26.4225 26.5868C26.9003 24.91 27.5578 22.3251 27.5578 21.2481C27.5578 18.5234 26.9846 16.0514 26.1246 14.2365C26.064 13.1768 26.2375 12.1101 26.6367 11.1132L26.9679 11.5729C27.0858 11.7364 27.3132 11.773 27.4761 11.6547L29.6668 10.0814C29.745 10.0247 29.7978 9.94023 29.8138 9.84392C29.829 9.74831 29.8062 9.65074 29.7492 9.57312Z" fill="#393D4F"/>
</svg>
