<svg width="1920" height="83" viewBox="0 0 1920 83" fill="none" xmlns="http://www.w3.org/2000/svg">
<g opacity="0.15">
<g style="mix-blend-mode:multiply">
<g style="mix-blend-mode:multiply">
<g style="mix-blend-mode:multiply">
<path d="M1913.5 71.2345V32.5873H1909.26V26.425H1901.63V32.5873H1891.11V70.7355H1878.49V42.4325H1869.07V69.5912L1857.79 66.1285V50.0916H1851.39V33.453H1833.23V48.5803H1816.74V42.3886L1793.51 33.453V58.983H1776.18V38.7351H1763.72V20.688H1758.75V13.2638H1755.64V8.65666H1752.1V0H1749.7V8.65666H1745.49V13.2638H1741.99V20.688H1737.5V71.1904H1730.77V44.2519H1708.38V66.1285L1697.79 71.2345V56.1072H1688.87V70.4422H1679.27V60.6703H1672.2V32.7928L1648.81 37.3559V61.0518H1637.2V70.4715H1626.45V38.7791H1619.04V19.705H1600.82V13.6747H1593.92V20.2479H1590.05V64.001H1578.78V43.5183H1575.84C1575.84 41.6738 1575.11 39.9048 1573.81 38.6006C1572.5 37.2963 1570.73 36.5636 1568.89 36.5636C1567.05 36.5636 1565.28 37.2963 1563.97 38.6006C1562.67 39.9048 1561.94 41.6738 1561.94 43.5183H1559.4V61.9321H1543.14V33.1303H1525.69V49.7248H1508.57V43.7237H1507.49V36.1234H1505.81V43.7237H1505.05V50.1062H1501.19V71.2491H1489.45V30.724H1483.86C1483.86 30.4159 1483.86 30.093 1483.86 29.7703C1483.96 28.6725 1483.82 27.567 1483.47 26.524C1483.11 25.4809 1482.54 24.5231 1481.8 23.7113C1481.05 22.8994 1480.15 22.2512 1479.14 21.8077C1478.13 21.3643 1477.04 21.1353 1475.94 21.1353C1474.84 21.1353 1473.75 21.3643 1472.74 21.8077C1471.73 22.2512 1470.83 22.8994 1470.08 23.7113C1469.34 24.5231 1468.77 25.4809 1468.41 26.524C1468.06 27.567 1467.92 28.6725 1468.02 29.7703C1468.02 30.093 1468.02 30.4159 1468.02 30.724H1462.12V56.474L1449.87 71.2345V9.06753L1435.44 22.9183V54.64H1429.74V38.6031H1404.4V71.2345H1390.8V32.5873H1386.59V26.425H1378.97V32.5873H1368.49V70.7355H1355.91V42.4325H1346.52V69.5912L1335.28 66.1285V50.0916H1328.89V33.453H1310.77V48.5803H1294.34V42.3886L1271.19 33.453V58.983H1253.9V38.7351H1241.49V20.688H1236.55V13.2638H1233.43V8.65666H1229.91V0H1227.48V8.65666H1223.28V13.2638H1219.8V20.688H1215.31V71.1904H1208.61V44.2519H1186.28V66.1285L1175.71 71.2345V56.1072H1166.82V70.4422H1157.26V60.6703H1150.21V32.7928L1126.88 37.3559V61.0518H1115.31V70.4715H1104.58V38.7791H1097.25V19.705H1079.17V13.6894H1072.29V20.2479H1068.43V64.001H1057.16V43.5183H1054.23C1054.23 41.6777 1053.49 39.9125 1052.19 38.6109C1050.89 37.3094 1049.13 36.5783 1047.29 36.5783C1045.45 36.5783 1043.68 37.3094 1042.38 38.6109C1041.08 39.9125 1040.35 41.6777 1040.35 43.5183H1037.81V53.3635L1021.21 58.8363C1021.21 58.8363 1021.21 60.1714 1021.21 61.9321H1009.18V33.1303H991.692V49.7248H974.526V43.7237H973.425V36.1234H971.738V43.7237H970.99V50.1062H967.116V71.2491H955.378V30.724H949.773C949.773 30.4159 949.773 30.093 949.773 29.7703C949.868 28.6685 949.733 27.5591 949.376 26.5124C949.02 25.4657 948.449 24.5044 947.702 23.6897C946.954 22.8749 946.045 22.2244 945.033 21.7794C944.021 21.3344 942.927 21.1046 941.821 21.1046C940.715 21.1046 939.621 21.3344 938.609 21.7794C937.597 22.2244 936.688 22.8749 935.94 23.6897C935.193 24.5044 934.622 25.4657 934.266 26.5124C933.909 27.5591 933.774 28.6685 933.868 29.7703C933.868 30.093 933.868 30.4159 933.868 30.724H927.853V56.474L915.557 71.2345V9.06753L901.09 22.9183V54.64H895.368V38.6031H870.014V71.2345H856.384V32.5873H852.158V26.425H844.514V32.5873H834.008V70.7355H821.375V42.4325H811.956V69.5912L800.687 66.1285V50.0916H794.29V33.453H776.111V48.5803H759.619V42.3886L736.393 33.453V58.983H719.065V38.7351H706.608V20.688H701.649V13.2638H698.538V8.65666H695.002V0H692.552V8.65666H688.355V13.2638H684.863V20.688H680.359V71.1904H673.624V44.2519H651.249V66.1285L640.641 71.2345V56.1072H631.661V70.4422H622.124V60.6703H615.067V32.7928L591.664 37.3559V61.0518H580.058V70.4715H569.289V38.7791H561.879V19.705H543.715V13.6747H536.804V20.2479H532.945V64.001H521.618V43.5183H518.684C518.684 41.6738 517.951 39.9048 516.647 38.6006C515.343 37.2963 513.574 36.5636 511.729 36.5636C509.885 36.5636 508.116 37.2963 506.811 38.6006C505.507 39.9048 504.774 41.6738 504.774 43.5183H502.251V61.9321H486.023V33.1303H468.578V49.7248H451.47V43.7237H450.369V36.1234H448.696V43.7237H447.948V50.1062H444.089V71.2491H432.351V30.724H426.761C426.761 30.4159 426.761 30.093 426.761 29.7703C426.843 28.6791 426.698 27.583 426.336 26.5504C425.975 25.5177 425.404 24.5708 424.659 23.7688C423.915 22.9669 423.013 22.3273 422.01 21.8898C421.007 21.4524 419.925 21.2266 418.831 21.2266C417.737 21.2266 416.654 21.4524 415.651 21.8898C414.648 22.3273 413.747 22.9669 413.002 23.7688C412.258 24.5708 411.687 25.5177 411.325 26.5504C410.964 27.583 410.819 28.6791 410.9 29.7703C410.9 30.093 410.9 30.4159 410.9 30.724H404.885V56.474L392.648 71.2345V9.06753L378.21 22.9183V54.64H372.517V38.6031H347.281V71.2345H333.694V32.5873H329.483V26.425H321.868V32.5873H311.378V70.7355H298.789V42.4325H289.398V69.5912L278.159 66.1285V50.0916H271.791V33.453H253.671V48.5803H237.223V42.3886L214.07 33.453V58.983H196.786V38.7351H184.373V20.688H179.429V13.2638H176.318V8.65666H172.797V0H170.376V8.65666H166.18V13.2638H162.688V20.688H158.286V71.1904H151.492V44.2519H129.176V66.1285L118.612 71.2345V56.1072H109.72V70.4422H100.154V60.6703H93.1844V32.7928L69.8699 37.3559V61.0518H58.2934V70.4715H47.5532V38.7791H40.217V19.705H21.9792V13.6894H15.0979V20.2479H11.2391V64.001H0V83.3392H1920V71.1904L1913.5 71.2345ZM43.0928 75.4307H34.1573V73.45H43.0928V75.4307ZM43.0928 68.5494H34.1573V66.5686H43.0928V68.5494ZM43.0928 61.668H34.1573V59.6873H43.0928V61.668ZM43.0928 54.7867H34.1573V52.8059H43.0928V54.7867ZM43.0928 47.9053H34.1573V45.9246H43.0928V47.9053ZM78.9522 59.7459H75.1667V55.6377H78.9522V59.7459ZM78.9522 53.3341H75.1667V49.2112H78.9522V53.3341ZM78.9522 46.9076H75.1667V42.7993H78.9522V46.9076ZM86.4938 59.7459H82.7083V55.6377H86.4938V59.7459ZM86.4938 53.3341H82.7083V49.2112H86.4938V53.3341ZM86.4938 46.9076H82.7083V42.7993H86.4938V46.9076ZM115.971 72.2322H112.258V68.1239H116.029L115.971 72.2322ZM115.971 64.764H112.258V60.6703H116.029L115.971 64.764ZM166.253 73.2446H164.58V25.8381H166.253V73.2446ZM170.537 73.2446H168.865V25.8381H170.537V73.2446ZM174.822 73.2446H173.134V25.8381H174.822V73.2446ZM179.091 73.2446H177.419V25.8381H179.091V73.2446ZM220.482 48.7857C219.787 48.8448 219.09 48.6927 218.483 48.3492C217.876 48.0058 217.387 47.487 217.08 46.8609C216.773 46.2347 216.662 45.5304 216.762 44.8401C216.861 44.1498 217.167 43.5057 217.639 42.9922C218.111 42.4787 218.727 42.1197 219.407 41.9622C220.086 41.8047 220.797 41.8561 221.447 42.1096C222.097 42.3631 222.655 42.8069 223.048 43.3829C223.442 43.9589 223.652 44.6402 223.651 45.3376C223.687 46.2148 223.374 47.0704 222.779 47.7168C222.185 48.3632 221.359 48.7476 220.482 48.7857ZM327.268 57.4424H322.998V49.9448H327.268V57.4424ZM327.268 46.2327H322.998V38.7351H327.268V46.2327ZM369.172 71.1758H351.683V68.6668H369.172V71.1758ZM369.172 63.0619H351.683V60.597H369.172V63.0619ZM369.172 54.9334H351.683V52.5272H369.172V54.9334ZM369.172 46.8196H351.683V44.3546H369.172V46.8196ZM389.185 37.664H387.425V19.5876H389.185V37.664ZM417.239 58.6455H414.304V48.5363H417.239V58.6455ZM417.239 46.2473H414.304V36.1234H417.239V46.2473ZM423.401 58.6455H420.467V48.5363H423.401V58.6455ZM423.401 46.2473H420.467V36.1234H423.401V46.2473ZM564.887 75.4454H555.937V73.4647H564.887V75.4454ZM564.887 68.5641H555.937V66.5833H564.887V68.5641ZM564.887 61.6827H555.937V59.702H564.887V61.6827ZM564.887 54.8014H555.937V52.8206H564.887V54.8014ZM564.887 47.92H555.937V45.9246H564.887V47.92ZM600.849 59.7459H597.064V55.6377H600.849V59.7459ZM600.849 53.3341H597.064V49.2112H600.849V53.3341ZM600.849 46.9076H597.064V42.7993H600.849V46.9076ZM608.42 59.7459H604.635V55.6377H608.42V59.7459ZM608.42 53.3341H604.635V49.2112H608.42V53.3341ZM608.42 46.9076H604.635V42.7993H608.42V46.9076ZM637.985 72.2322H634.2V68.1239H637.985V72.2322ZM637.985 64.764H634.2V60.6703H637.985V64.764ZM688.429 73.2446H686.756V25.8381H688.429V73.2446ZM692.728 73.2446H691.04V25.8381H692.728V73.2446ZM697.012 73.2446H695.339V25.8381H697.012V73.2446ZM701.311 73.2446H699.624V25.8381H701.311V73.2446ZM742.819 48.7857C742.125 48.8388 741.431 48.6814 740.827 48.3339C740.224 47.9865 739.739 47.4652 739.437 46.8381C739.134 46.211 739.027 45.5072 739.131 44.8186C739.234 44.13 739.543 43.4887 740.017 42.9782C740.49 42.4677 741.107 42.1118 741.786 41.957C742.464 41.8022 743.174 41.8557 743.822 42.1105C744.47 42.3653 745.026 42.8096 745.418 43.3853C745.81 43.961 746.019 44.6413 746.018 45.3376C746.036 45.7744 745.967 46.2103 745.815 46.6203C745.664 47.0303 745.433 47.4064 745.136 47.7268C744.838 48.0473 744.481 48.3058 744.083 48.4875C743.686 48.6692 743.256 48.7706 742.819 48.7857ZM849.928 57.4424H845.643V49.9448H849.928V57.4424ZM849.928 46.2327H845.643V38.7351H849.928V46.2327ZM891.964 71.1758H874.357V68.6668H891.964V71.1758ZM891.964 63.0619H874.357V60.597H891.964V63.0619ZM891.964 54.9481H874.357V52.5272H891.964V54.9481ZM891.964 46.8196H874.357V44.3546H891.964V46.8196ZM912.036 37.664H910.261V19.5876H912.036V37.664ZM940.178 58.6455H937.243V48.5363H940.178V58.6455ZM940.178 46.2473H937.243V36.1234H940.178V46.2473ZM946.355 58.6455H943.42V48.5363H946.355V58.6455ZM946.355 46.2473H943.42V36.1234H946.355V46.2473ZM1028.34 69.3124H1024.88V60.6997H1028.34V69.3124ZM1100.24 75.4454H1091.3V73.4647H1100.24V75.4454ZM1100.24 68.5641H1091.3V66.5833H1100.24V68.5641ZM1100.24 61.6827H1091.3V59.702H1100.24V61.6827ZM1100.24 54.8014H1091.3V52.8206H1100.24V54.8014ZM1100.24 47.92H1091.3V45.9246H1100.24V47.92ZM1136.08 59.7606H1132.3V55.6524H1136.08V59.7606ZM1136.08 53.3488H1132.3V49.2259H1136.08V53.3488ZM1136.08 46.9223H1132.3V42.814H1136.08V46.9223ZM1143.64 59.7606H1139.85V55.6524H1143.64V59.7606ZM1143.64 53.3488H1139.85V49.2259H1143.64V53.3488ZM1143.64 46.9223H1139.85V42.814H1143.64V46.9223ZM1173.07 72.2322H1169.29V68.1239H1173.07V72.2322ZM1173.07 64.764H1169.29V60.6703H1173.07V64.764ZM1223.35 73.2446H1221.68V25.8381H1223.35V73.2446ZM1227.64 73.2446H1225.95V25.8381H1227.64V73.2446ZM1231.91 73.2446H1230.29V25.8381H1231.97L1231.91 73.2446ZM1236.19 73.2446H1234.51V25.8381H1236.16L1236.19 73.2446ZM1277.57 48.7857C1276.87 48.8418 1276.18 48.687 1275.57 48.3415C1274.97 47.9961 1274.48 47.476 1274.18 46.8494C1273.87 46.2228 1273.76 45.5187 1273.86 44.8293C1273.97 44.1398 1274.27 43.4972 1274.75 42.9852C1275.22 42.4732 1275.84 42.1157 1276.51 41.9596C1277.19 41.8035 1277.9 41.8559 1278.55 42.1101C1279.2 42.3642 1279.76 42.8082 1280.15 43.384C1280.54 43.9599 1280.75 44.6408 1280.75 45.3376C1280.77 45.7732 1280.7 46.208 1280.55 46.6171C1280.4 47.0262 1280.17 47.4016 1279.88 47.7218C1279.58 48.0421 1279.22 48.3009 1278.83 48.4835C1278.43 48.666 1278 48.7687 1277.57 48.7857ZM1384.37 57.4424H1380.1V49.9448H1384.36L1384.37 57.4424ZM1384.37 46.2327H1380.1V38.7351H1384.36L1384.37 46.2327ZM1426.27 71.1758H1408.8V68.6668H1426.29L1426.27 71.1758ZM1426.27 63.0619H1408.8V60.597H1426.29L1426.27 63.0619ZM1426.27 54.9334H1408.8V52.5272H1426.29L1426.27 54.9334ZM1426.27 46.8196H1408.8V44.3546H1426.29L1426.27 46.8196ZM1446.27 37.664H1444.51V19.5876H1446.27V37.664ZM1474.34 58.6455H1471.41V48.5363H1474.34V58.6455ZM1474.34 46.2473H1471.41V36.1234H1474.34V46.2473ZM1480.5 58.6455H1477.57V48.5363H1480.5V58.6455ZM1480.5 46.2473H1477.57V36.1234H1480.5V46.2473ZM1621.99 75.4454H1613.02V73.4647H1622.05L1621.99 75.4454ZM1621.99 68.5641H1613.02V66.5833H1622.05L1621.99 68.5641ZM1621.99 61.6827H1613.02V59.702H1622.05L1621.99 61.6827ZM1621.99 54.8014H1613.02V52.8206H1622.05L1621.99 54.8014ZM1621.99 47.92H1613.02V45.9246H1622.05L1621.99 47.92ZM1657.95 59.7606H1654.15V55.6524H1657.95V59.7606ZM1657.95 53.3488H1654.15V49.2259H1657.95V53.3488ZM1657.95 46.9223H1654.15V42.814H1657.95V46.9223ZM1665.52 59.7606H1661.72V55.6524H1665.52V59.7606ZM1665.52 53.3488H1661.72V49.2259H1665.52V53.3488ZM1665.52 46.9223H1661.72V42.814H1665.52V46.9223ZM1695.09 72.2468H1691.3V68.1386H1695.09V72.2468ZM1695.09 64.7786H1691.3V60.685H1695.09V64.7786ZM1745.53 73.2593H1743.83V25.8381H1745.52L1745.53 73.2593ZM1749.83 73.2593H1748.23V25.8381H1749.92L1749.83 73.2593ZM1754.11 73.2593H1752.43V25.8381H1754.1L1754.11 73.2593ZM1758.41 73.2593H1756.73V25.8381H1758.5L1758.41 73.2593ZM1799.92 48.8004C1799.23 48.8565 1798.53 48.7017 1797.93 48.3562C1797.32 48.0108 1796.83 47.4907 1796.53 46.8641C1796.22 46.2374 1796.12 45.5334 1796.22 44.8439C1796.32 44.1545 1796.63 43.5118 1797.1 42.9998C1797.57 42.4878 1798.19 42.1304 1798.87 41.9743C1799.55 41.8182 1800.26 41.8706 1800.91 42.1247C1801.55 42.3789 1802.11 42.8229 1802.5 43.3987C1802.9 43.9746 1803.11 44.6554 1803.11 45.3523C1803.12 45.7879 1803.05 46.2227 1802.9 46.6318C1802.75 47.0409 1802.52 47.4163 1802.23 47.7365C1801.93 48.0568 1801.58 48.3155 1801.18 48.4981C1800.78 48.6806 1800.36 48.7834 1799.92 48.8004ZM1907.03 57.4571H1902.75V49.9595H1907.03V57.4571ZM1907.03 46.2473H1902.75V38.7351H1907.03V46.2473Z" fill="black"/>
</g>
</g>
</g>
</g>
</svg>
